<svg width="248" height="159" viewBox="0 0 248 159" fill="none" xmlns="http://www.w3.org/2000/svg">
<path d="M1.53586 2.15118C44.8767 6.19633 95.5126 10.7903 122.469 49.653C132.125 63.5731 135.749 82.3996 134.89 99.1159C134.159 113.321 127.68 121.2 113.318 123.085C89.687 126.186 59.2782 96.4547 73.1517 72.5323C81.2437 58.579 96.9626 46.9923 111.72 41.1549C122.9 36.7326 134.454 36.0435 146.293 37.5233C163.922 39.727 176.115 48.4543 189.255 59.8216C202.831 71.5653 213.351 84.0607 223.066 99.0069C225.279 102.412 227.915 106.26 228.949 110.265C229.487 112.352 229.241 116.194 230.656 117.891C233.326 121.096 233.082 127.437 233.961 131.328C234.939 135.661 236.132 139.842 237.52 144.003" stroke="black" stroke-width="3" stroke-linecap="round" stroke-dasharray="6 6"/>
<path d="M225.845 147.35C228.758 148.852 231.619 150.354 234.277 152.282C235.695 153.311 237.002 154.567 238.542 155.417C239.325 155.849 243.186 157.656 243.523 156.073C244.508 151.443 243.596 146.523 244.653 141.858C244.991 140.363 245.95 139.304 246.402 137.946" stroke="black" stroke-width="3" stroke-linecap="round" stroke-dasharray="6 12 18 24"/>
</svg>
