<svg xmlns="http://www.w3.org/2000/svg" xmlns:xlink="http://www.w3.org/1999/xlink" width="430" zoomAndPan="magnify" viewBox="0 0 322.5 77.249999" height="103" preserveAspectRatio="xMidYMid meet" version="1.0"><defs><g/><clipPath id="bd9a37bf6a"><path d="M 1.304688 0 L 320.703125 0 L 320.703125 20 L 1.304688 20 Z M 1.304688 0 " clip-rule="nonzero"/></clipPath><clipPath id="ec8ffe7363"><path d="M 1.304688 55 L 320.703125 55 L 320.703125 76.507812 L 1.304688 76.507812 Z M 1.304688 55 " clip-rule="nonzero"/></clipPath><clipPath id="51a52b4900"><path d="M 1.304688 0 L 21 0 L 21 76.507812 L 1.304688 76.507812 Z M 1.304688 0 " clip-rule="nonzero"/></clipPath><clipPath id="e18de0c311"><path d="M 300 0 L 320.703125 0 L 320.703125 76.507812 L 300 76.507812 Z M 300 0 " clip-rule="nonzero"/></clipPath><clipPath id="1bd62007ac"><path d="M 8.15625 6.507812 L 187.019531 6.507812 L 187.019531 67.914062 L 8.15625 67.914062 Z M 8.15625 6.507812 " clip-rule="nonzero"/></clipPath></defs><g clip-path="url(#bd9a37bf6a)"><path stroke-linecap="butt" transform="matrix(0.764402, 0.00206426, -0.00206426, 0.764402, 1.319155, 0.0603861)" fill="none" stroke-linejoin="miter" d="M 0.00180774 2.000851 L 416.933297 1.999178 " stroke="#00c193" stroke-width="4" stroke-opacity="1" stroke-miterlimit="4"/></g><g clip-path="url(#ec8ffe7363)"><path stroke-linecap="butt" transform="matrix(0.764394, 0.00392298, -0.00392298, 0.764394, 1.31858, 71.71525)" fill="none" stroke-linejoin="miter" d="M 0.00229833 1.997566 L 416.958259 1.998884 " stroke="#00c193" stroke-width="4" stroke-opacity="1" stroke-miterlimit="4"/></g><g clip-path="url(#51a52b4900)"><path stroke-linecap="butt" transform="matrix(0.00474373, -0.76439, 0.76439, 0.00474373, 1.361341, 72.427921)" fill="none" stroke-linejoin="miter" d="M -0.000115869 2.000661 L 94.754805 2.000303 " stroke="#00c193" stroke-width="4" stroke-opacity="1" stroke-miterlimit="4"/></g><g clip-path="url(#e18de0c311)"><path stroke-linecap="butt" transform="matrix(0.00474373, -0.76439, 0.76439, 0.00474373, 316.46807, 74.040542)" fill="none" stroke-linejoin="miter" d="M -0.000989842 1.999018 L 94.753931 1.998661 " stroke="#00c193" stroke-width="4" stroke-opacity="1" stroke-miterlimit="4"/></g><g clip-path="url(#1bd62007ac)"><path fill="#00c193" d="M 8.15625 6.507812 L 187.019531 6.507812 L 187.019531 67.914062 L 8.15625 67.914062 Z M 8.15625 6.507812 " fill-opacity="1" fill-rule="nonzero"/></g><g fill="#ffffff" fill-opacity="1"><g transform="translate(22.467494, 50.855456)"><g><path d="M 28.015625 -18.78125 L 21.828125 -18.78125 C 21.585938 -20.375 20.910156 -21.625 19.796875 -22.53125 C 18.679688 -23.4375 17.285156 -23.890625 15.609375 -23.890625 C 13.367188 -23.890625 11.570312 -23.066406 10.21875 -21.421875 C 8.875 -19.785156 8.203125 -17.460938 8.203125 -14.453125 C 8.203125 -11.367188 8.878906 -9.023438 10.234375 -7.421875 C 11.597656 -5.816406 13.375 -5.015625 15.5625 -5.015625 C 17.1875 -5.015625 18.5625 -5.4375 19.6875 -6.28125 C 20.820312 -7.132812 21.535156 -8.332031 21.828125 -9.875 L 28.015625 -9.84375 C 27.796875 -8.082031 27.160156 -6.421875 26.109375 -4.859375 C 25.066406 -3.296875 23.648438 -2.03125 21.859375 -1.0625 C 20.066406 -0.09375 17.9375 0.390625 15.46875 0.390625 C 12.882812 0.390625 10.578125 -0.191406 8.546875 -1.359375 C 6.523438 -2.523438 4.925781 -4.210938 3.75 -6.421875 C 2.582031 -8.628906 2 -11.304688 2 -14.453125 C 2 -17.597656 2.59375 -20.273438 3.78125 -22.484375 C 4.96875 -24.703125 6.578125 -26.390625 8.609375 -27.546875 C 10.640625 -28.710938 12.925781 -29.296875 15.46875 -29.296875 C 17.695312 -29.296875 19.707031 -28.882812 21.5 -28.0625 C 23.289062 -27.238281 24.753906 -26.039062 25.890625 -24.46875 C 27.035156 -22.90625 27.742188 -21.007812 28.015625 -18.78125 Z M 28.015625 -18.78125 "/></g></g></g><g fill="#ffffff" fill-opacity="1"><g transform="translate(52.354836, 50.855456)"><g><path d="M 29.0625 -14.453125 C 29.0625 -11.296875 28.46875 -8.613281 27.28125 -6.40625 C 26.09375 -4.195312 24.476562 -2.507812 22.4375 -1.34375 C 20.394531 -0.1875 18.09375 0.390625 15.53125 0.390625 C 12.96875 0.390625 10.664062 -0.191406 8.625 -1.359375 C 6.582031 -2.523438 4.96875 -4.210938 3.78125 -6.421875 C 2.59375 -8.640625 2 -11.316406 2 -14.453125 C 2 -17.597656 2.59375 -20.273438 3.78125 -22.484375 C 4.96875 -24.703125 6.582031 -26.390625 8.625 -27.546875 C 10.664062 -28.710938 12.96875 -29.296875 15.53125 -29.296875 C 18.09375 -29.296875 20.394531 -28.710938 22.4375 -27.546875 C 24.476562 -26.390625 26.09375 -24.703125 27.28125 -22.484375 C 28.46875 -20.273438 29.0625 -17.597656 29.0625 -14.453125 Z M 22.875 -14.453125 C 22.875 -17.515625 22.203125 -19.851562 20.859375 -21.46875 C 19.523438 -23.082031 17.75 -23.890625 15.53125 -23.890625 C 13.3125 -23.890625 11.535156 -23.082031 10.203125 -21.46875 C 8.867188 -19.851562 8.203125 -17.515625 8.203125 -14.453125 C 8.203125 -11.390625 8.867188 -9.050781 10.203125 -7.4375 C 11.535156 -5.820312 13.3125 -5.015625 15.53125 -5.015625 C 17.75 -5.015625 19.523438 -5.820312 20.859375 -7.4375 C 22.203125 -9.050781 22.875 -11.390625 22.875 -14.453125 Z M 22.875 -14.453125 "/></g></g></g><g fill="#ffffff" fill-opacity="1"><g transform="translate(83.427508, 50.855456)"><g><path d="M 7.5 0 L 0.953125 0 L 10.921875 -28.890625 L 18.796875 -28.890625 L 28.75 0 L 22.203125 0 L 20.0625 -6.59375 L 9.640625 -6.59375 Z M 11.1875 -11.359375 L 18.53125 -11.359375 L 14.96875 -22.296875 L 14.75 -22.296875 Z M 11.1875 -11.359375 "/></g></g></g><g fill="#ffffff" fill-opacity="1"><g transform="translate(113.145514, 50.855456)"><g><path d="M 28.015625 -18.78125 L 21.828125 -18.78125 C 21.585938 -20.375 20.910156 -21.625 19.796875 -22.53125 C 18.679688 -23.4375 17.285156 -23.890625 15.609375 -23.890625 C 13.367188 -23.890625 11.570312 -23.066406 10.21875 -21.421875 C 8.875 -19.785156 8.203125 -17.460938 8.203125 -14.453125 C 8.203125 -11.367188 8.878906 -9.023438 10.234375 -7.421875 C 11.597656 -5.816406 13.375 -5.015625 15.5625 -5.015625 C 17.1875 -5.015625 18.5625 -5.4375 19.6875 -6.28125 C 20.820312 -7.132812 21.535156 -8.332031 21.828125 -9.875 L 28.015625 -9.84375 C 27.796875 -8.082031 27.160156 -6.421875 26.109375 -4.859375 C 25.066406 -3.296875 23.648438 -2.03125 21.859375 -1.0625 C 20.066406 -0.09375 17.9375 0.390625 15.46875 0.390625 C 12.882812 0.390625 10.578125 -0.191406 8.546875 -1.359375 C 6.523438 -2.523438 4.925781 -4.210938 3.75 -6.421875 C 2.582031 -8.628906 2 -11.304688 2 -14.453125 C 2 -17.597656 2.59375 -20.273438 3.78125 -22.484375 C 4.96875 -24.703125 6.578125 -26.390625 8.609375 -27.546875 C 10.640625 -28.710938 12.925781 -29.296875 15.46875 -29.296875 C 17.695312 -29.296875 19.707031 -28.882812 21.5 -28.0625 C 23.289062 -27.238281 24.753906 -26.039062 25.890625 -24.46875 C 27.035156 -22.90625 27.742188 -21.007812 28.015625 -18.78125 Z M 28.015625 -18.78125 "/></g></g></g><g fill="#ffffff" fill-opacity="1"><g transform="translate(143.032856, 50.855456)"><g><path d="M 2.515625 0 L 2.515625 -28.890625 L 8.625 -28.890625 L 8.625 -16.96875 L 21.03125 -16.96875 L 21.03125 -28.890625 L 27.125 -28.890625 L 27.125 0 L 21.03125 0 L 21.03125 -11.9375 L 8.625 -11.9375 L 8.625 0 Z M 2.515625 0 "/></g></g></g><g fill="#08ddb8" fill-opacity="1"><g transform="translate(198.97908, 50.960786)"><g><path d="M 2.40625 0 L 2.40625 -27.75 L 13.515625 -27.75 C 16.578125 -27.75 18.878906 -27.082031 20.421875 -25.75 C 21.960938 -24.414062 22.734375 -22.710938 22.734375 -20.640625 C 22.734375 -19.003906 22.257812 -17.679688 21.3125 -16.671875 C 20.363281 -15.660156 19.164062 -14.992188 17.71875 -14.671875 L 17.71875 -14.40625 C 18.78125 -14.351562 19.773438 -14.050781 20.703125 -13.5 C 21.628906 -12.957031 22.378906 -12.191406 22.953125 -11.203125 C 23.535156 -10.222656 23.828125 -9.046875 23.828125 -7.671875 C 23.828125 -6.191406 23.460938 -4.875 22.734375 -3.71875 C 22.003906 -2.5625 20.929688 -1.648438 19.515625 -0.984375 C 18.097656 -0.328125 16.347656 0 14.265625 0 Z M 8.28125 -4.796875 L 13.0625 -4.796875 C 14.707031 -4.796875 15.898438 -5.109375 16.640625 -5.734375 C 17.390625 -6.367188 17.765625 -7.207031 17.765625 -8.25 C 17.765625 -9.394531 17.351562 -10.332031 16.53125 -11.0625 C 15.71875 -11.800781 14.609375 -12.171875 13.203125 -12.171875 L 8.28125 -12.171875 Z M 8.28125 -16.140625 L 12.625 -16.140625 C 13.832031 -16.140625 14.832031 -16.453125 15.625 -17.078125 C 16.414062 -17.703125 16.8125 -18.5625 16.8125 -19.65625 C 16.8125 -20.664062 16.457031 -21.472656 15.75 -22.078125 C 15.039062 -22.691406 14.035156 -23 12.734375 -23 L 8.28125 -23 Z M 8.28125 -16.140625 "/></g></g></g><g fill="#08ddb8" fill-opacity="1"><g transform="translate(224.190773, 50.960786)"><g><path d="M 27.90625 -13.875 C 27.90625 -10.84375 27.332031 -8.265625 26.1875 -6.140625 C 25.050781 -4.023438 23.503906 -2.410156 21.546875 -1.296875 C 19.585938 -0.179688 17.378906 0.375 14.921875 0.375 C 12.453125 0.375 10.238281 -0.179688 8.28125 -1.296875 C 6.320312 -2.421875 4.769531 -4.046875 3.625 -6.171875 C 2.488281 -8.296875 1.921875 -10.863281 1.921875 -13.875 C 1.921875 -16.90625 2.488281 -19.476562 3.625 -21.59375 C 4.769531 -23.71875 6.320312 -25.335938 8.28125 -26.453125 C 10.238281 -27.566406 12.453125 -28.125 14.921875 -28.125 C 17.378906 -28.125 19.585938 -27.566406 21.546875 -26.453125 C 23.503906 -25.335938 25.050781 -23.71875 26.1875 -21.59375 C 27.332031 -19.476562 27.90625 -16.90625 27.90625 -13.875 Z M 21.96875 -13.875 C 21.96875 -16.820312 21.320312 -19.066406 20.03125 -20.609375 C 18.75 -22.160156 17.046875 -22.9375 14.921875 -22.9375 C 12.785156 -22.9375 11.078125 -22.160156 9.796875 -20.609375 C 8.515625 -19.066406 7.875 -16.820312 7.875 -13.875 C 7.875 -10.9375 8.515625 -8.691406 9.796875 -7.140625 C 11.078125 -5.585938 12.785156 -4.8125 14.921875 -4.8125 C 17.046875 -4.8125 18.75 -5.585938 20.03125 -7.140625 C 21.320312 -8.691406 21.96875 -10.9375 21.96875 -13.875 Z M 21.96875 -13.875 "/></g></g></g><g fill="#08ddb8" fill-opacity="1"><g transform="translate(254.022128, 50.960786)"><g><path d="M 1.359375 -22.90625 L 1.359375 -27.75 L 24.140625 -27.75 L 24.140625 -22.90625 L 15.65625 -22.90625 L 15.65625 0 L 9.84375 0 L 9.84375 -22.90625 Z M 1.359375 -22.90625 "/></g></g></g><g fill="#08ddb8" fill-opacity="1"><g transform="translate(279.518318, 50.960786)"><g><path d="M 17.46875 -19.765625 C 17.351562 -20.859375 16.882812 -21.707031 16.0625 -22.3125 C 15.238281 -22.914062 14.125 -23.21875 12.71875 -23.21875 C 11.28125 -23.21875 10.175781 -22.925781 9.40625 -22.34375 C 8.644531 -21.757812 8.265625 -21.019531 8.265625 -20.125 C 8.242188 -19.125 8.671875 -18.367188 9.546875 -17.859375 C 10.421875 -17.347656 11.457031 -16.957031 12.65625 -16.6875 L 15.15625 -16.078125 C 16.757812 -15.722656 18.1875 -15.203125 19.4375 -14.515625 C 20.6875 -13.828125 21.671875 -12.941406 22.390625 -11.859375 C 23.109375 -10.785156 23.46875 -9.472656 23.46875 -7.921875 C 23.457031 -5.390625 22.503906 -3.367188 20.609375 -1.859375 C 18.722656 -0.359375 16.085938 0.390625 12.703125 0.390625 C 9.328125 0.390625 6.632812 -0.375 4.625 -1.90625 C 2.625 -3.445312 1.585938 -5.71875 1.515625 -8.71875 L 7.1875 -8.71875 C 7.289062 -7.320312 7.84375 -6.273438 8.84375 -5.578125 C 9.84375 -4.878906 11.101562 -4.53125 12.625 -4.53125 C 14.113281 -4.53125 15.300781 -4.84375 16.1875 -5.46875 C 17.082031 -6.101562 17.535156 -6.925781 17.546875 -7.9375 C 17.535156 -8.875 17.125 -9.59375 16.3125 -10.09375 C 15.5 -10.601562 14.335938 -11.039062 12.828125 -11.40625 L 9.8125 -12.171875 C 7.46875 -12.734375 5.617188 -13.625 4.265625 -14.84375 C 2.910156 -16.0625 2.238281 -17.691406 2.25 -19.734375 C 2.238281 -21.410156 2.6875 -22.878906 3.59375 -24.140625 C 4.5 -25.398438 5.75 -26.378906 7.34375 -27.078125 C 8.9375 -27.773438 10.742188 -28.125 12.765625 -28.125 C 14.828125 -28.125 16.625 -27.769531 18.15625 -27.0625 C 19.695312 -26.363281 20.894531 -25.382812 21.75 -24.125 C 22.613281 -22.875 23.0625 -21.421875 23.09375 -19.765625 Z M 17.46875 -19.765625 "/></g></g></g></svg>